<svg width="136" height="136" fill="none" xmlns="http://www.w3.org/2000/svg"><g filter="url(#a)"><path fill-rule="evenodd" clip-rule="evenodd" d="M68 133.527c36.19 0 65.527-29.337 65.527-65.527S104.19 2.473 68 2.473 2.473 31.81 2.473 68 31.81 133.527 68 133.527zM68 136c37.555 0 68-30.445 68-68S105.555 0 68 0 0 30.445 0 68s30.445 68 68 68z" fill="#8D8D8D"/></g><g filter="url(#b)"><path fill-rule="evenodd" clip-rule="evenodd" d="m76.781 40 18.687 23.024 20.117-22.427v53.6h-5.779V55.68L95.248 71.91 82.56 56.277v9.132c0 8.094-.172 15.539-2.194 20.95-1.049 2.804-2.657 5.256-5.143 6.975-2.484 1.718-5.557 2.506-9.175 2.506-4.323 0-7.77-1.275-10.381-3.585-2.556-2.26-4.066-5.294-4.983-8.403-1.474-5.004-1.58-10.885-1.571-15.564h-23.52v25.907h-5.78v-53.87h5.78v22.206h23.53V40.326h5.779v22.206h7.43v5.757h-7.436c-.005 4.648.092 9.727 1.334 13.942.734 2.493 1.804 4.42 3.274 5.72 1.413 1.25 3.435 2.133 6.544 2.133 2.78 0 4.609-.6 5.879-1.478 1.267-.876 2.265-2.228 3.023-4.256 1.59-4.253 1.83-10.584 1.83-18.94V40z" fill="#8D8D8D"/></g><g filter="url(#c)"><path d="M69.951 40v37.574c0 4.9-4.278 7.76-4.278 7.76h-7.13s5.704-2.86 5.704-7.76V40h5.704z" fill="#8D8D8D"/></g><defs><filter id="a" x="0" y="0" width="136" height="140" filterUnits="userSpaceOnUse" color-interpolation-filters="sRGB"><feFlood flood-opacity="0" result="BackgroundImageFix"/><feBlend in="SourceGraphic" in2="BackgroundImageFix" result="shape"/><feColorMatrix in="SourceAlpha" values="0 0 0 0 0 0 0 0 0 0 0 0 0 0 0 0 0 0 127 0" result="hardAlpha"/><feOffset dy="4"/><feGaussianBlur stdDeviation="2"/><feComposite in2="hardAlpha" operator="arithmetic" k2="-1" k3="1"/><feColorMatrix values="0 0 0 0 0 0 0 0 0 0 0 0 0 0 0 0 0 0 0.25 0"/><feBlend in2="shape" result="effect1_innerShadow_70_22"/></filter><filter id="b" x="19.815" y="40" width="95.77" height="59.841" filterUnits="userSpaceOnUse" color-interpolation-filters="sRGB"><feFlood flood-opacity="0" result="BackgroundImageFix"/><feBlend in="SourceGraphic" in2="BackgroundImageFix" result="shape"/><feColorMatrix in="SourceAlpha" values="0 0 0 0 0 0 0 0 0 0 0 0 0 0 0 0 0 0 127 0" result="hardAlpha"/><feOffset dy="4"/><feGaussianBlur stdDeviation="2"/><feComposite in2="hardAlpha" operator="arithmetic" k2="-1" k3="1"/><feColorMatrix values="0 0 0 0 0.248647 0 0 0 0 0.248647 0 0 0 0 0.248647 0 0 0 0.41 0"/><feBlend in2="shape" result="effect1_innerShadow_70_22"/></filter><filter id="c" x="58.543" y="40" width="11.408" height="49.333" filterUnits="userSpaceOnUse" color-interpolation-filters="sRGB"><feFlood flood-opacity="0" result="BackgroundImageFix"/><feBlend in="SourceGraphic" in2="BackgroundImageFix" result="shape"/><feColorMatrix in="SourceAlpha" values="0 0 0 0 0 0 0 0 0 0 0 0 0 0 0 0 0 0 127 0" result="hardAlpha"/><feOffset dy="4"/><feGaussianBlur stdDeviation="2"/><feComposite in2="hardAlpha" operator="arithmetic" k2="-1" k3="1"/><feColorMatrix values="0 0 0 0 0.247059 0 0 0 0 0.247059 0 0 0 0 0.247059 0 0 0 0.54 0"/><feBlend in2="shape" result="effect1_innerShadow_70_22"/></filter></defs></svg>