<svg width="136" height="136" viewBox="0 0 136 136" fill="none" xmlns="http://www.w3.org/2000/svg">
<g filter="url(#filter0_i_70_22)">
<path fill-rule="evenodd" clip-rule="evenodd" d="M68 133.527C104.19 133.527 133.527 104.19 133.527 68C133.527 31.8103 104.19 2.47273 68 2.47273C31.8103 2.47273 2.47273 31.8103 2.47273 68C2.47273 104.19 31.8103 133.527 68 133.527ZM68 136C105.555 136 136 105.555 136 68C136 30.4446 105.555 0 68 0C30.4446 0 0 30.4446 0 68C0 105.555 30.4446 136 68 136Z" fill="#8D8D8D"/>
</g>
<g filter="url(#filter1_i_70_22)">
<path fill-rule="evenodd" clip-rule="evenodd" d="M76.7815 40L95.4677 63.0237L115.585 40.5975V94.1962H109.806V55.6801L95.2475 71.9092L82.5607 56.2776V65.4103C82.5607 73.5041 82.3888 80.949 80.3667 86.3592C79.3184 89.1638 77.7103 91.6157 75.2236 93.3353C72.74 95.0527 69.6673 95.8411 66.0486 95.8411C61.7264 95.8411 58.2792 94.5656 55.6676 92.2558C53.1121 89.9956 51.6019 86.9624 50.6855 83.8525C49.2108 78.8486 49.1046 72.9682 49.114 68.2889H25.5938V94.1962H19.8146V40.3255H25.5938V62.5317H49.1236V40.3255H54.9029V62.5317H62.3333V68.2889H54.8966C54.8923 72.9366 54.9885 78.0156 56.2307 82.2308C56.9654 84.7239 58.0353 86.651 59.5046 87.9505C60.9178 89.2004 62.9403 90.0839 66.0486 90.0839C68.8283 90.0839 70.6576 89.4844 71.928 88.6059C73.1953 87.7296 74.1929 86.3777 74.9507 84.3503C76.5405 80.0967 76.7815 73.7656 76.7815 65.4103V40Z" fill="#8D8D8D"/>
</g>
<g filter="url(#filter2_i_70_22)">
<path d="M69.9514 40V77.5736C69.9514 82.4745 65.6732 85.3333 65.6732 85.3333H58.543C58.543 85.3333 64.2472 82.4745 64.2472 77.5736V40H69.9514Z" fill="#8D8D8D"/>
</g>
<defs>
<filter id="filter0_i_70_22" x="0" y="0" width="136" height="140" filterUnits="userSpaceOnUse" color-interpolation-filters="sRGB">
<feFlood flood-opacity="0" result="BackgroundImageFix"/>
<feBlend mode="normal" in="SourceGraphic" in2="BackgroundImageFix" result="shape"/>
<feColorMatrix in="SourceAlpha" type="matrix" values="0 0 0 0 0 0 0 0 0 0 0 0 0 0 0 0 0 0 127 0" result="hardAlpha"/>
<feOffset dy="4"/>
<feGaussianBlur stdDeviation="2"/>
<feComposite in2="hardAlpha" operator="arithmetic" k2="-1" k3="1"/>
<feColorMatrix type="matrix" values="0 0 0 0 0 0 0 0 0 0 0 0 0 0 0 0 0 0 0.25 0"/>
<feBlend mode="normal" in2="shape" result="effect1_innerShadow_70_22"/>
</filter>
<filter id="filter1_i_70_22" x="19.8146" y="40" width="95.7704" height="59.8411" filterUnits="userSpaceOnUse" color-interpolation-filters="sRGB">
<feFlood flood-opacity="0" result="BackgroundImageFix"/>
<feBlend mode="normal" in="SourceGraphic" in2="BackgroundImageFix" result="shape"/>
<feColorMatrix in="SourceAlpha" type="matrix" values="0 0 0 0 0 0 0 0 0 0 0 0 0 0 0 0 0 0 127 0" result="hardAlpha"/>
<feOffset dy="4"/>
<feGaussianBlur stdDeviation="2"/>
<feComposite in2="hardAlpha" operator="arithmetic" k2="-1" k3="1"/>
<feColorMatrix type="matrix" values="0 0 0 0 0.248647 0 0 0 0 0.248647 0 0 0 0 0.248647 0 0 0 0.41 0"/>
<feBlend mode="normal" in2="shape" result="effect1_innerShadow_70_22"/>
</filter>
<filter id="filter2_i_70_22" x="58.543" y="40" width="11.4084" height="49.3333" filterUnits="userSpaceOnUse" color-interpolation-filters="sRGB">
<feFlood flood-opacity="0" result="BackgroundImageFix"/>
<feBlend mode="normal" in="SourceGraphic" in2="BackgroundImageFix" result="shape"/>
<feColorMatrix in="SourceAlpha" type="matrix" values="0 0 0 0 0 0 0 0 0 0 0 0 0 0 0 0 0 0 127 0" result="hardAlpha"/>
<feOffset dy="4"/>
<feGaussianBlur stdDeviation="2"/>
<feComposite in2="hardAlpha" operator="arithmetic" k2="-1" k3="1"/>
<feColorMatrix type="matrix" values="0 0 0 0 0.247059 0 0 0 0 0.247059 0 0 0 0 0.247059 0 0 0 0.54 0"/>
<feBlend mode="normal" in2="shape" result="effect1_innerShadow_70_22"/>
</filter>
</defs>
</svg>
